<?xml version="1.0" encoding="utf-8" standalone="no"?>
<!DOCTYPE svg PUBLIC "-//W3C//DTD SVG 1.1//EN"
  "http://www.w3.org/Graphics/SVG/1.1/DTD/svg11.dtd">
<!-- Created with matplotlib (https://matplotlib.org/) -->
<svg height="345.6pt" version="1.1" viewBox="0 0 460.8 345.6" width="460.8pt" xmlns="http://www.w3.org/2000/svg" xmlns:xlink="http://www.w3.org/1999/xlink">
 <defs>
  <style type="text/css">
*{stroke-linecap:butt;stroke-linejoin:round;}
  </style>
 </defs>
 <g id="figure_1">
  <g id="patch_1">
   <path d="M 0 345.6 
L 460.8 345.6 
L 460.8 0 
L 0 0 
z
" style="fill:#ffffff;"/>
  </g>
  <g id="axes_1">
   <g id="patch_2">
    <path d="M 57.6 307.584 
L 414.72 307.584 
L 414.72 41.472 
L 57.6 41.472 
z
" style="fill:#ffffff;"/>
   </g>
   <g id="matplotlib.axis_1">
    <g id="xtick_1">
     <g id="line2d_1">
      <defs>
       <path d="M 0 0 
L 0 3.5 
" id="m09c51dc150" style="stroke:#000000;stroke-width:0.8;"/>
      </defs>
      <g>
       <use style="stroke:#000000;stroke-width:0.8;" x="73.832727" xlink:href="#m09c51dc150" y="307.584"/>
      </g>
     </g>
     <g id="text_1">
      <!-- 0.0 -->
      <defs>
       <path d="M 31.78125 66.40625 
Q 24.171875 66.40625 20.328125 58.90625 
Q 16.5 51.421875 16.5 36.375 
Q 16.5 21.390625 20.328125 13.890625 
Q 24.171875 6.390625 31.78125 6.390625 
Q 39.453125 6.390625 43.28125 13.890625 
Q 47.125 21.390625 47.125 36.375 
Q 47.125 51.421875 43.28125 58.90625 
Q 39.453125 66.40625 31.78125 66.40625 
z
M 31.78125 74.21875 
Q 44.046875 74.21875 50.515625 64.515625 
Q 56.984375 54.828125 56.984375 36.375 
Q 56.984375 17.96875 50.515625 8.265625 
Q 44.046875 -1.421875 31.78125 -1.421875 
Q 19.53125 -1.421875 13.0625 8.265625 
Q 6.59375 17.96875 6.59375 36.375 
Q 6.59375 54.828125 13.0625 64.515625 
Q 19.53125 74.21875 31.78125 74.21875 
z
" id="DejaVuSans-48"/>
       <path d="M 10.6875 12.40625 
L 21 12.40625 
L 21 0 
L 10.6875 0 
z
" id="DejaVuSans-46"/>
      </defs>
      <g transform="translate(65.881165 322.182437)scale(0.1 -0.1)">
       <use xlink:href="#DejaVuSans-48"/>
       <use x="63.623047" xlink:href="#DejaVuSans-46"/>
       <use x="95.410156" xlink:href="#DejaVuSans-48"/>
      </g>
     </g>
    </g>
    <g id="xtick_2">
     <g id="line2d_2">
      <g>
       <use style="stroke:#000000;stroke-width:0.8;" x="151.493613" xlink:href="#m09c51dc150" y="307.584"/>
      </g>
     </g>
     <g id="text_2">
      <!-- 0.5 -->
      <defs>
       <path d="M 10.796875 72.90625 
L 49.515625 72.90625 
L 49.515625 64.59375 
L 19.828125 64.59375 
L 19.828125 46.734375 
Q 21.96875 47.46875 24.109375 47.828125 
Q 26.265625 48.1875 28.421875 48.1875 
Q 40.625 48.1875 47.75 41.5 
Q 54.890625 34.8125 54.890625 23.390625 
Q 54.890625 11.625 47.5625 5.09375 
Q 40.234375 -1.421875 26.90625 -1.421875 
Q 22.3125 -1.421875 17.546875 -0.640625 
Q 12.796875 0.140625 7.71875 1.703125 
L 7.71875 11.625 
Q 12.109375 9.234375 16.796875 8.0625 
Q 21.484375 6.890625 26.703125 6.890625 
Q 35.15625 6.890625 40.078125 11.328125 
Q 45.015625 15.765625 45.015625 23.390625 
Q 45.015625 31 40.078125 35.4375 
Q 35.15625 39.890625 26.703125 39.890625 
Q 22.75 39.890625 18.8125 39.015625 
Q 14.890625 38.140625 10.796875 36.28125 
z
" id="DejaVuSans-53"/>
      </defs>
      <g transform="translate(143.54205 322.182437)scale(0.1 -0.1)">
       <use xlink:href="#DejaVuSans-48"/>
       <use x="63.623047" xlink:href="#DejaVuSans-46"/>
       <use x="95.410156" xlink:href="#DejaVuSans-53"/>
      </g>
     </g>
    </g>
    <g id="xtick_3">
     <g id="line2d_3">
      <g>
       <use style="stroke:#000000;stroke-width:0.8;" x="229.154498" xlink:href="#m09c51dc150" y="307.584"/>
      </g>
     </g>
     <g id="text_3">
      <!-- 1.0 -->
      <defs>
       <path d="M 12.40625 8.296875 
L 28.515625 8.296875 
L 28.515625 63.921875 
L 10.984375 60.40625 
L 10.984375 69.390625 
L 28.421875 72.90625 
L 38.28125 72.90625 
L 38.28125 8.296875 
L 54.390625 8.296875 
L 54.390625 0 
L 12.40625 0 
z
" id="DejaVuSans-49"/>
      </defs>
      <g transform="translate(221.202935 322.182437)scale(0.1 -0.1)">
       <use xlink:href="#DejaVuSans-49"/>
       <use x="63.623047" xlink:href="#DejaVuSans-46"/>
       <use x="95.410156" xlink:href="#DejaVuSans-48"/>
      </g>
     </g>
    </g>
    <g id="xtick_4">
     <g id="line2d_4">
      <g>
       <use style="stroke:#000000;stroke-width:0.8;" x="306.815383" xlink:href="#m09c51dc150" y="307.584"/>
      </g>
     </g>
     <g id="text_4">
      <!-- 1.5 -->
      <g transform="translate(298.863821 322.182437)scale(0.1 -0.1)">
       <use xlink:href="#DejaVuSans-49"/>
       <use x="63.623047" xlink:href="#DejaVuSans-46"/>
       <use x="95.410156" xlink:href="#DejaVuSans-53"/>
      </g>
     </g>
    </g>
    <g id="xtick_5">
     <g id="line2d_5">
      <g>
       <use style="stroke:#000000;stroke-width:0.8;" x="384.476269" xlink:href="#m09c51dc150" y="307.584"/>
      </g>
     </g>
     <g id="text_5">
      <!-- 2.0 -->
      <defs>
       <path d="M 19.1875 8.296875 
L 53.609375 8.296875 
L 53.609375 0 
L 7.328125 0 
L 7.328125 8.296875 
Q 12.9375 14.109375 22.625 23.890625 
Q 32.328125 33.6875 34.8125 36.53125 
Q 39.546875 41.84375 41.421875 45.53125 
Q 43.3125 49.21875 43.3125 52.78125 
Q 43.3125 58.59375 39.234375 62.25 
Q 35.15625 65.921875 28.609375 65.921875 
Q 23.96875 65.921875 18.8125 64.3125 
Q 13.671875 62.703125 7.8125 59.421875 
L 7.8125 69.390625 
Q 13.765625 71.78125 18.9375 73 
Q 24.125 74.21875 28.421875 74.21875 
Q 39.75 74.21875 46.484375 68.546875 
Q 53.21875 62.890625 53.21875 53.421875 
Q 53.21875 48.921875 51.53125 44.890625 
Q 49.859375 40.875 45.40625 35.40625 
Q 44.1875 33.984375 37.640625 27.21875 
Q 31.109375 20.453125 19.1875 8.296875 
z
" id="DejaVuSans-50"/>
      </defs>
      <g transform="translate(376.524706 322.182437)scale(0.1 -0.1)">
       <use xlink:href="#DejaVuSans-50"/>
       <use x="63.623047" xlink:href="#DejaVuSans-46"/>
       <use x="95.410156" xlink:href="#DejaVuSans-48"/>
      </g>
     </g>
    </g>
   </g>
   <g id="matplotlib.axis_2">
    <g id="ytick_1">
     <g id="line2d_6">
      <defs>
       <path d="M 0 0 
L -3.5 0 
" id="m3bd41230d1" style="stroke:#000000;stroke-width:0.8;"/>
      </defs>
      <g>
       <use style="stroke:#000000;stroke-width:0.8;" x="57.6" xlink:href="#m3bd41230d1" y="295.488"/>
      </g>
     </g>
     <g id="text_6">
      <!-- 0.0 -->
      <g transform="translate(34.696875 299.287219)scale(0.1 -0.1)">
       <use xlink:href="#DejaVuSans-48"/>
       <use x="63.623047" xlink:href="#DejaVuSans-46"/>
       <use x="95.410156" xlink:href="#DejaVuSans-48"/>
      </g>
     </g>
    </g>
    <g id="ytick_2">
     <g id="line2d_7">
      <g>
       <use style="stroke:#000000;stroke-width:0.8;" x="57.6" xlink:href="#m3bd41230d1" y="247.104"/>
      </g>
     </g>
     <g id="text_7">
      <!-- 0.2 -->
      <g transform="translate(34.696875 250.903219)scale(0.1 -0.1)">
       <use xlink:href="#DejaVuSans-48"/>
       <use x="63.623047" xlink:href="#DejaVuSans-46"/>
       <use x="95.410156" xlink:href="#DejaVuSans-50"/>
      </g>
     </g>
    </g>
    <g id="ytick_3">
     <g id="line2d_8">
      <g>
       <use style="stroke:#000000;stroke-width:0.8;" x="57.6" xlink:href="#m3bd41230d1" y="198.72"/>
      </g>
     </g>
     <g id="text_8">
      <!-- 0.4 -->
      <defs>
       <path d="M 37.796875 64.3125 
L 12.890625 25.390625 
L 37.796875 25.390625 
z
M 35.203125 72.90625 
L 47.609375 72.90625 
L 47.609375 25.390625 
L 58.015625 25.390625 
L 58.015625 17.1875 
L 47.609375 17.1875 
L 47.609375 0 
L 37.796875 0 
L 37.796875 17.1875 
L 4.890625 17.1875 
L 4.890625 26.703125 
z
" id="DejaVuSans-52"/>
      </defs>
      <g transform="translate(34.696875 202.519219)scale(0.1 -0.1)">
       <use xlink:href="#DejaVuSans-48"/>
       <use x="63.623047" xlink:href="#DejaVuSans-46"/>
       <use x="95.410156" xlink:href="#DejaVuSans-52"/>
      </g>
     </g>
    </g>
    <g id="ytick_4">
     <g id="line2d_9">
      <g>
       <use style="stroke:#000000;stroke-width:0.8;" x="57.6" xlink:href="#m3bd41230d1" y="150.336"/>
      </g>
     </g>
     <g id="text_9">
      <!-- 0.6 -->
      <defs>
       <path d="M 33.015625 40.375 
Q 26.375 40.375 22.484375 35.828125 
Q 18.609375 31.296875 18.609375 23.390625 
Q 18.609375 15.53125 22.484375 10.953125 
Q 26.375 6.390625 33.015625 6.390625 
Q 39.65625 6.390625 43.53125 10.953125 
Q 47.40625 15.53125 47.40625 23.390625 
Q 47.40625 31.296875 43.53125 35.828125 
Q 39.65625 40.375 33.015625 40.375 
z
M 52.59375 71.296875 
L 52.59375 62.3125 
Q 48.875 64.0625 45.09375 64.984375 
Q 41.3125 65.921875 37.59375 65.921875 
Q 27.828125 65.921875 22.671875 59.328125 
Q 17.53125 52.734375 16.796875 39.40625 
Q 19.671875 43.65625 24.015625 45.921875 
Q 28.375 48.1875 33.59375 48.1875 
Q 44.578125 48.1875 50.953125 41.515625 
Q 57.328125 34.859375 57.328125 23.390625 
Q 57.328125 12.15625 50.6875 5.359375 
Q 44.046875 -1.421875 33.015625 -1.421875 
Q 20.359375 -1.421875 13.671875 8.265625 
Q 6.984375 17.96875 6.984375 36.375 
Q 6.984375 53.65625 15.1875 63.9375 
Q 23.390625 74.21875 37.203125 74.21875 
Q 40.921875 74.21875 44.703125 73.484375 
Q 48.484375 72.75 52.59375 71.296875 
z
" id="DejaVuSans-54"/>
      </defs>
      <g transform="translate(34.696875 154.135219)scale(0.1 -0.1)">
       <use xlink:href="#DejaVuSans-48"/>
       <use x="63.623047" xlink:href="#DejaVuSans-46"/>
       <use x="95.410156" xlink:href="#DejaVuSans-54"/>
      </g>
     </g>
    </g>
    <g id="ytick_5">
     <g id="line2d_10">
      <g>
       <use style="stroke:#000000;stroke-width:0.8;" x="57.6" xlink:href="#m3bd41230d1" y="101.952"/>
      </g>
     </g>
     <g id="text_10">
      <!-- 0.8 -->
      <defs>
       <path d="M 31.78125 34.625 
Q 24.75 34.625 20.71875 30.859375 
Q 16.703125 27.09375 16.703125 20.515625 
Q 16.703125 13.921875 20.71875 10.15625 
Q 24.75 6.390625 31.78125 6.390625 
Q 38.8125 6.390625 42.859375 10.171875 
Q 46.921875 13.96875 46.921875 20.515625 
Q 46.921875 27.09375 42.890625 30.859375 
Q 38.875 34.625 31.78125 34.625 
z
M 21.921875 38.8125 
Q 15.578125 40.375 12.03125 44.71875 
Q 8.5 49.078125 8.5 55.328125 
Q 8.5 64.0625 14.71875 69.140625 
Q 20.953125 74.21875 31.78125 74.21875 
Q 42.671875 74.21875 48.875 69.140625 
Q 55.078125 64.0625 55.078125 55.328125 
Q 55.078125 49.078125 51.53125 44.71875 
Q 48 40.375 41.703125 38.8125 
Q 48.828125 37.15625 52.796875 32.3125 
Q 56.78125 27.484375 56.78125 20.515625 
Q 56.78125 9.90625 50.3125 4.234375 
Q 43.84375 -1.421875 31.78125 -1.421875 
Q 19.734375 -1.421875 13.25 4.234375 
Q 6.78125 9.90625 6.78125 20.515625 
Q 6.78125 27.484375 10.78125 32.3125 
Q 14.796875 37.15625 21.921875 38.8125 
z
M 18.3125 54.390625 
Q 18.3125 48.734375 21.84375 45.5625 
Q 25.390625 42.390625 31.78125 42.390625 
Q 38.140625 42.390625 41.71875 45.5625 
Q 45.3125 48.734375 45.3125 54.390625 
Q 45.3125 60.0625 41.71875 63.234375 
Q 38.140625 66.40625 31.78125 66.40625 
Q 25.390625 66.40625 21.84375 63.234375 
Q 18.3125 60.0625 18.3125 54.390625 
z
" id="DejaVuSans-56"/>
      </defs>
      <g transform="translate(34.696875 105.751219)scale(0.1 -0.1)">
       <use xlink:href="#DejaVuSans-48"/>
       <use x="63.623047" xlink:href="#DejaVuSans-46"/>
       <use x="95.410156" xlink:href="#DejaVuSans-56"/>
      </g>
     </g>
    </g>
    <g id="ytick_6">
     <g id="line2d_11">
      <g>
       <use style="stroke:#000000;stroke-width:0.8;" x="57.6" xlink:href="#m3bd41230d1" y="53.568"/>
      </g>
     </g>
     <g id="text_11">
      <!-- 1.0 -->
      <g transform="translate(34.696875 57.367219)scale(0.1 -0.1)">
       <use xlink:href="#DejaVuSans-49"/>
       <use x="63.623047" xlink:href="#DejaVuSans-46"/>
       <use x="95.410156" xlink:href="#DejaVuSans-48"/>
      </g>
     </g>
    </g>
   </g>
   <g id="line2d_12">
    <path clip-path="url(#paf9037be40)" d="M 73.832727 280.309623 
L 77.085779 275.393231 
L 79.03761 272.821568 
L 80.989441 270.665042 
L 82.941272 268.924397 
L 84.893103 267.53422 
L 87.495544 266.049176 
L 92.700426 263.308653 
L 94.652257 262.000355 
L 96.604088 260.367117 
L 98.555919 258.329648 
L 100.50775 255.865214 
L 102.459581 253.03662 
L 108.315074 244.169694 
L 110.266905 241.739655 
L 112.218736 239.737559 
L 114.170567 238.134705 
L 116.122398 236.848461 
L 118.724839 235.437257 
L 122.628501 233.405457 
L 124.580332 232.171989 
L 126.532163 230.643117 
L 128.483993 228.728827 
L 130.435824 226.386534 
L 132.387655 223.651863 
L 139.544369 212.969719 
L 141.4962 210.69874 
L 143.448031 208.853316 
L 145.399862 207.380767 
L 147.351692 206.186016 
L 151.255354 204.173134 
L 153.857796 202.730709 
L 155.809627 201.398801 
L 157.761457 199.734076 
L 159.713288 197.660706 
L 161.665119 195.16208 
L 164.267561 191.305066 
L 168.821833 184.359819 
L 170.773664 181.827609 
L 172.725495 179.718386 
L 174.677326 178.021901 
L 176.629156 176.666043 
L 179.231598 175.206379 
L 184.43648 172.440535 
L 186.388311 171.096744 
L 188.340142 169.416206 
L 190.291973 167.324923 
L 192.243804 164.809441 
L 194.846245 160.93844 
L 199.400517 154.006559 
L 201.352348 151.491077 
L 203.304179 149.399794 
L 205.25601 147.719256 
L 207.207841 146.375465 
L 209.810282 144.924556 
L 214.364555 142.54373 
L 216.316385 141.279172 
L 218.268216 139.706367 
L 220.220047 137.739585 
L 222.171878 135.344403 
L 224.123709 132.567936 
L 230.629812 122.776156 
L 232.581643 120.416165 
L 234.533474 118.484451 
L 236.485305 116.941091 
L 238.437136 115.697455 
L 241.690188 113.986913 
L 244.943239 112.255816 
L 246.89507 110.980514 
L 248.846901 109.392763 
L 250.798732 107.408359 
L 252.750563 104.995713 
L 254.702394 102.205827 
L 261.208497 92.429743 
L 263.160328 90.087586 
L 265.112159 88.1735 
L 267.06399 86.644931 
L 269.015821 85.411916 
L 272.268872 83.708845 
L 275.521924 81.972746 
L 277.473755 80.689063 
L 279.425586 79.090028 
L 281.377417 77.093627 
L 283.329248 74.672081 
L 285.281079 71.881669 
L 291.136571 63.078021 
L 293.088402 60.675773 
L 295.040233 58.730598 
L 296.992064 57.233997 
L 298.943895 56.127237 
L 300.895726 55.332536 
L 302.847557 54.773908 
L 305.449998 54.28725 
L 308.70305 53.941582 
L 313.257322 53.716013 
L 321.064646 53.598 
L 345.137227 53.568216 
L 398.487273 53.568 
L 398.487273 53.568 
" style="fill:none;stroke:#1f77b4;stroke-linecap:square;stroke-width:1.5;"/>
   </g>
   <g id="line2d_13">
    <path clip-path="url(#paf9037be40)" d="M 73.832727 295.488 
L 100.50775 254.1445 
L 114.821177 232.385223 
L 126.532163 214.972296 
L 136.941927 199.875197 
L 146.701082 186.110311 
L 155.809627 173.651475 
L 164.267561 162.456731 
L 172.074884 152.472423 
L 179.882208 142.849384 
L 187.038921 134.366409 
L 194.195635 126.225445 
L 200.701738 119.13591 
L 207.207841 112.355756 
L 213.713944 105.896879 
L 220.220047 99.770609 
L 226.07554 94.55024 
L 231.931033 89.615415 
L 237.786526 84.973146 
L 243.642019 80.63003 
L 248.846901 77.025623 
L 254.051784 73.666513 
L 259.256666 70.556473 
L 264.461549 67.698993 
L 269.666431 65.097284 
L 274.871314 62.754266 
L 280.076196 60.672569 
L 285.281079 58.854532 
L 290.485961 57.302196 
L 295.040233 56.163237 
L 299.594505 55.230023 
L 304.148778 54.503357 
L 308.70305 53.983863 
L 313.257322 53.671988 
L 317.811594 53.568 
L 322.365866 53.671988 
L 326.920138 53.983863 
L 331.474411 54.503357 
L 336.028683 55.230023 
L 340.582955 56.163237 
L 345.137227 57.302196 
L 349.691499 58.645921 
L 354.896382 60.430851 
L 360.101264 62.479712 
L 365.306147 64.790203 
L 370.511029 67.35973 
L 375.715912 70.185407 
L 380.920794 73.264063 
L 386.125677 76.592239 
L 391.330559 80.1662 
L 397.186052 84.475688 
L 398.487273 85.474298 
L 398.487273 85.474298 
" style="fill:none;stroke:#ff7f0e;stroke-linecap:square;stroke-width:1.5;"/>
   </g>
   <g id="line2d_14">
    <path clip-path="url(#paf9037be40)" d="M 73.832727 291.160285 
L 75.133948 290.066716 
L 76.435169 288.765112 
L 78.386999 286.412758 
L 80.33883 283.624967 
L 83.591882 278.39724 
L 86.844934 273.230832 
L 89.447375 269.564501 
L 92.700426 265.506481 
L 95.953478 261.480911 
L 98.555919 257.854288 
L 101.15836 253.73027 
L 107.664463 242.971767 
L 109.616294 240.223377 
L 112.218736 236.992247 
L 118.074228 230.060381 
L 120.026059 227.355291 
L 122.628501 223.294535 
L 128.483993 213.71754 
L 130.435824 210.969918 
L 132.387655 208.556018 
L 134.990097 205.724323 
L 139.544369 200.872772 
L 141.4962 198.453671 
L 143.448031 195.70932 
L 146.050472 191.614263 
L 150.604744 184.310947 
L 152.556575 181.592799 
L 154.508406 179.248551 
L 156.460237 177.241553 
L 159.062678 174.901332 
L 162.96634 171.395583 
L 164.918171 169.328114 
L 166.870002 166.91573 
L 168.821833 164.146464 
L 172.074884 159.016303 
L 175.327936 154.018769 
L 177.279767 151.436056 
L 179.231598 149.265194 
L 181.183429 147.482659 
L 183.13526 146.001696 
L 187.038921 143.447284 
L 189.641363 141.610198 
L 191.593194 139.942667 
L 193.545025 137.914255 
L 195.496856 135.480611 
L 197.448686 132.681569 
L 203.95479 122.884601 
L 205.906621 120.545118 
L 207.858451 118.650573 
L 209.810282 117.167904 
L 211.762113 116.017975 
L 214.364555 114.832787 
L 220.870658 112.152118 
L 222.822489 111.023819 
L 224.77432 109.570783 
L 226.72615 107.712836 
L 228.677981 105.414314 
L 230.629812 102.715728 
L 237.786526 92.170358 
L 239.738357 89.966283 
L 241.690188 88.220053 
L 243.642019 86.89553 
L 245.59385 85.920374 
L 247.54568 85.212926 
L 250.148122 84.556791 
L 253.401173 83.995621 
L 259.256666 83.049663 
L 261.859107 82.388932 
L 263.810938 81.676227 
L 265.762769 80.694107 
L 267.7146 79.361107 
L 269.015821 78.241044 
L 270.967652 76.181375 
L 272.919483 73.679379 
L 275.521924 69.83476 
L 279.425586 63.951179 
L 281.377417 61.416077 
L 283.329248 59.320749 
L 285.281079 57.68212 
L 287.232909 56.455235 
L 289.18474 55.566251 
L 291.136571 54.937289 
L 293.739013 54.386605 
L 296.992064 53.993894 
L 301.546336 53.736922 
L 308.70305 53.607137 
L 328.221359 53.568718 
L 398.487273 53.568 
L 398.487273 53.568 
" style="fill:none;stroke:#2ca02c;stroke-linecap:square;stroke-width:1.5;"/>
   </g>
   <g id="line2d_15">
    <path clip-path="url(#paf9037be40)" d="M 73.832727 295.488 
L 100.50775 254.1445 
L 114.821177 232.385223 
L 126.532163 214.972296 
L 136.941927 199.875197 
L 146.701082 186.110311 
L 155.809627 173.651475 
L 164.267561 162.456731 
L 172.074884 152.472423 
L 179.882208 142.849384 
L 187.038921 134.366409 
L 194.195635 126.225445 
L 200.701738 119.13591 
L 207.207841 112.355756 
L 213.713944 105.896879 
L 220.220047 99.770609 
L 226.07554 94.55024 
L 231.931033 89.615415 
L 237.786526 84.973146 
L 243.642019 80.63003 
L 248.846901 77.025623 
L 254.051784 73.666513 
L 259.256666 70.556473 
L 264.461549 67.698993 
L 269.666431 65.097284 
L 274.871314 62.754266 
L 280.076196 60.672569 
L 285.281079 58.854532 
L 290.485961 57.302196 
L 295.040233 56.163237 
L 299.594505 55.230023 
L 304.148778 54.503357 
L 308.70305 53.983863 
L 313.257322 53.671988 
L 317.811594 53.568 
L 322.365866 53.671988 
L 326.920138 53.983863 
L 331.474411 54.503357 
L 336.028683 55.230023 
L 340.582955 56.163237 
L 345.137227 57.302196 
L 349.691499 58.645921 
L 354.896382 60.430851 
L 360.101264 62.479712 
L 365.306147 64.790203 
L 370.511029 67.35973 
L 375.715912 70.185407 
L 380.920794 73.264063 
L 386.125677 76.592239 
L 391.330559 80.1662 
L 397.186052 84.475688 
L 398.487273 85.474298 
L 398.487273 85.474298 
" style="fill:none;stroke:#d62728;stroke-linecap:square;stroke-width:1.5;"/>
   </g>
   <g id="line2d_16">
    <path clip-path="url(#paf9037be40)" d="M 73.832727 291.915399 
L 75.133948 290.979463 
L 76.435169 289.847321 
L 77.736389 288.503306 
L 79.68822 286.083348 
L 81.640051 283.228736 
L 84.893103 277.901223 
L 88.146154 272.624329 
L 90.748595 268.808504 
L 98.555919 257.895591 
L 101.15836 253.599949 
L 107.013853 243.572413 
L 109.616294 239.708156 
L 112.218736 236.276262 
L 116.773008 230.400597 
L 119.375449 226.569031 
L 121.97789 222.284657 
L 127.182773 213.565217 
L 129.134604 210.70758 
L 131.737045 207.352721 
L 138.893758 198.634072 
L 140.845589 195.774643 
L 143.448031 191.563052 
L 148.002303 184.100591 
L 149.954134 181.302426 
L 151.905965 178.850179 
L 154.508406 176.017 
L 159.713288 170.622028 
L 161.665119 168.242495 
L 163.61695 165.532733 
L 166.219392 161.476433 
L 170.773664 154.231557 
L 172.725495 151.547694 
L 174.677326 149.255176 
L 176.629156 147.327398 
L 179.231598 145.153848 
L 183.78587 141.507152 
L 185.737701 139.632637 
L 187.689532 137.410991 
L 189.641363 134.809126 
L 192.243804 130.866638 
L 196.147466 124.802001 
L 198.099297 122.144092 
L 200.051128 119.905575 
L 202.002959 118.101565 
L 203.95479 116.677293 
L 205.906621 115.539185 
L 209.159672 113.981986 
L 212.412724 112.402516 
L 214.364555 111.230173 
L 216.316385 109.758233 
L 218.268216 107.898791 
L 220.220047 105.608289 
L 222.171878 102.918858 
L 226.07554 96.927604 
L 228.677981 93.172838 
L 230.629812 90.791356 
L 232.581643 88.866128 
L 234.533474 87.384621 
L 236.485305 86.285363 
L 238.437136 85.488572 
L 240.388967 84.916135 
L 242.991408 84.387157 
L 246.89507 83.850728 
L 252.099953 83.125217 
L 254.702394 82.544533 
L 256.654225 81.911441 
L 258.606056 81.031247 
L 260.557887 79.82416 
L 261.859107 78.799309 
L 263.160328 77.5774 
L 265.112159 75.361809 
L 267.06399 72.725854 
L 270.317041 67.784335 
L 272.919483 63.918667 
L 274.871314 61.388506 
L 276.823144 59.298718 
L 278.774975 57.665344 
L 280.726806 56.442925 
L 282.678637 55.557461 
L 284.630468 54.931135 
L 287.232909 54.382858 
L 290.485961 53.991919 
L 295.040233 53.736132 
L 302.196947 53.606954 
L 321.715256 53.568714 
L 398.487273 53.568 
L 398.487273 53.568 
" style="fill:none;stroke:#9467bd;stroke-linecap:square;stroke-width:1.5;"/>
   </g>
   <g id="line2d_17">
    <path clip-path="url(#paf9037be40)" d="M 73.832727 295.488 
L 100.50775 254.1445 
L 114.821177 232.385223 
L 126.532163 214.972296 
L 136.941927 199.875197 
L 146.701082 186.110311 
L 155.809627 173.651475 
L 164.267561 162.456731 
L 172.074884 152.472423 
L 179.882208 142.849384 
L 187.038921 134.366409 
L 194.195635 126.225445 
L 200.701738 119.13591 
L 207.207841 112.355756 
L 213.713944 105.896879 
L 220.220047 99.770609 
L 226.07554 94.55024 
L 231.931033 89.615415 
L 237.786526 84.973146 
L 243.642019 80.63003 
L 248.846901 77.025623 
L 254.051784 73.666513 
L 259.256666 70.556473 
L 264.461549 67.698993 
L 269.666431 65.097284 
L 274.871314 62.754266 
L 280.076196 60.672569 
L 285.281079 58.854532 
L 290.485961 57.302196 
L 295.040233 56.163237 
L 299.594505 55.230023 
L 304.148778 54.503357 
L 308.70305 53.983863 
L 313.257322 53.671988 
L 317.811594 53.568 
L 322.365866 53.671988 
L 326.920138 53.983863 
L 331.474411 54.503357 
L 336.028683 55.230023 
L 340.582955 56.163237 
L 345.137227 57.302196 
L 349.691499 58.645921 
L 354.896382 60.430851 
L 360.101264 62.479712 
L 365.306147 64.790203 
L 370.511029 67.35973 
L 375.715912 70.185407 
L 380.920794 73.264063 
L 386.125677 76.592239 
L 391.330559 80.1662 
L 397.186052 84.475688 
L 398.487273 85.474298 
L 398.487273 85.474298 
" style="fill:none;stroke:#8c564b;stroke-linecap:square;stroke-width:1.5;"/>
   </g>
   <g id="patch_3">
    <path d="M 57.6 307.584 
L 57.6 41.472 
" style="fill:none;stroke:#000000;stroke-linecap:square;stroke-linejoin:miter;stroke-width:0.8;"/>
   </g>
   <g id="patch_4">
    <path d="M 414.72 307.584 
L 414.72 41.472 
" style="fill:none;stroke:#000000;stroke-linecap:square;stroke-linejoin:miter;stroke-width:0.8;"/>
   </g>
   <g id="patch_5">
    <path d="M 57.6 307.584 
L 414.72 307.584 
" style="fill:none;stroke:#000000;stroke-linecap:square;stroke-linejoin:miter;stroke-width:0.8;"/>
   </g>
   <g id="patch_6">
    <path d="M 57.6 41.472 
L 414.72 41.472 
" style="fill:none;stroke:#000000;stroke-linecap:square;stroke-linejoin:miter;stroke-width:0.8;"/>
   </g>
  </g>
 </g>
 <defs>
  <clipPath id="paf9037be40">
   <rect height="266.112" width="357.12" x="57.6" y="41.472"/>
  </clipPath>
 </defs>
</svg>
