<?xml version="1.0" encoding="utf-8" standalone="no"?>
<!DOCTYPE svg PUBLIC "-//W3C//DTD SVG 1.1//EN"
  "http://www.w3.org/Graphics/SVG/1.1/DTD/svg11.dtd">
<!-- Created with matplotlib (https://matplotlib.org/) -->
<svg height="345.6pt" version="1.1" viewBox="0 0 460.8 345.6" width="460.8pt" xmlns="http://www.w3.org/2000/svg" xmlns:xlink="http://www.w3.org/1999/xlink">
 <defs>
  <style type="text/css">
*{stroke-linecap:butt;stroke-linejoin:round;}
  </style>
 </defs>
 <g id="figure_1">
  <g id="patch_1">
   <path d="M 0 345.6 
L 460.8 345.6 
L 460.8 0 
L 0 0 
z
" style="fill:#ffffff;"/>
  </g>
  <g id="axes_1">
   <g id="patch_2">
    <path d="M 57.6 307.584 
L 414.72 307.584 
L 414.72 41.472 
L 57.6 41.472 
z
" style="fill:#ffffff;"/>
   </g>
   <g id="matplotlib.axis_1">
    <g id="xtick_1">
     <g id="line2d_1">
      <defs>
       <path d="M 0 0 
L 0 3.5 
" id="mdcbd7d399e" style="stroke:#000000;stroke-width:0.8;"/>
      </defs>
      <g>
       <use style="stroke:#000000;stroke-width:0.8;" x="73.832727" xlink:href="#mdcbd7d399e" y="307.584"/>
      </g>
     </g>
     <g id="text_1">
      <!-- 0.0 -->
      <defs>
       <path d="M 31.78125 66.40625 
Q 24.171875 66.40625 20.328125 58.90625 
Q 16.5 51.421875 16.5 36.375 
Q 16.5 21.390625 20.328125 13.890625 
Q 24.171875 6.390625 31.78125 6.390625 
Q 39.453125 6.390625 43.28125 13.890625 
Q 47.125 21.390625 47.125 36.375 
Q 47.125 51.421875 43.28125 58.90625 
Q 39.453125 66.40625 31.78125 66.40625 
z
M 31.78125 74.21875 
Q 44.046875 74.21875 50.515625 64.515625 
Q 56.984375 54.828125 56.984375 36.375 
Q 56.984375 17.96875 50.515625 8.265625 
Q 44.046875 -1.421875 31.78125 -1.421875 
Q 19.53125 -1.421875 13.0625 8.265625 
Q 6.59375 17.96875 6.59375 36.375 
Q 6.59375 54.828125 13.0625 64.515625 
Q 19.53125 74.21875 31.78125 74.21875 
z
" id="DejaVuSans-48"/>
       <path d="M 10.6875 12.40625 
L 21 12.40625 
L 21 0 
L 10.6875 0 
z
" id="DejaVuSans-46"/>
      </defs>
      <g transform="translate(65.881165 322.182437)scale(0.1 -0.1)">
       <use xlink:href="#DejaVuSans-48"/>
       <use x="63.623047" xlink:href="#DejaVuSans-46"/>
       <use x="95.410156" xlink:href="#DejaVuSans-48"/>
      </g>
     </g>
    </g>
    <g id="xtick_2">
     <g id="line2d_2">
      <g>
       <use style="stroke:#000000;stroke-width:0.8;" x="115.251866" xlink:href="#mdcbd7d399e" y="307.584"/>
      </g>
     </g>
     <g id="text_2">
      <!-- 0.2 -->
      <defs>
       <path d="M 19.1875 8.296875 
L 53.609375 8.296875 
L 53.609375 0 
L 7.328125 0 
L 7.328125 8.296875 
Q 12.9375 14.109375 22.625 23.890625 
Q 32.328125 33.6875 34.8125 36.53125 
Q 39.546875 41.84375 41.421875 45.53125 
Q 43.3125 49.21875 43.3125 52.78125 
Q 43.3125 58.59375 39.234375 62.25 
Q 35.15625 65.921875 28.609375 65.921875 
Q 23.96875 65.921875 18.8125 64.3125 
Q 13.671875 62.703125 7.8125 59.421875 
L 7.8125 69.390625 
Q 13.765625 71.78125 18.9375 73 
Q 24.125 74.21875 28.421875 74.21875 
Q 39.75 74.21875 46.484375 68.546875 
Q 53.21875 62.890625 53.21875 53.421875 
Q 53.21875 48.921875 51.53125 44.890625 
Q 49.859375 40.875 45.40625 35.40625 
Q 44.1875 33.984375 37.640625 27.21875 
Q 31.109375 20.453125 19.1875 8.296875 
z
" id="DejaVuSans-50"/>
      </defs>
      <g transform="translate(107.300304 322.182437)scale(0.1 -0.1)">
       <use xlink:href="#DejaVuSans-48"/>
       <use x="63.623047" xlink:href="#DejaVuSans-46"/>
       <use x="95.410156" xlink:href="#DejaVuSans-50"/>
      </g>
     </g>
    </g>
    <g id="xtick_3">
     <g id="line2d_3">
      <g>
       <use style="stroke:#000000;stroke-width:0.8;" x="156.671005" xlink:href="#mdcbd7d399e" y="307.584"/>
      </g>
     </g>
     <g id="text_3">
      <!-- 0.4 -->
      <defs>
       <path d="M 37.796875 64.3125 
L 12.890625 25.390625 
L 37.796875 25.390625 
z
M 35.203125 72.90625 
L 47.609375 72.90625 
L 47.609375 25.390625 
L 58.015625 25.390625 
L 58.015625 17.1875 
L 47.609375 17.1875 
L 47.609375 0 
L 37.796875 0 
L 37.796875 17.1875 
L 4.890625 17.1875 
L 4.890625 26.703125 
z
" id="DejaVuSans-52"/>
      </defs>
      <g transform="translate(148.719442 322.182437)scale(0.1 -0.1)">
       <use xlink:href="#DejaVuSans-48"/>
       <use x="63.623047" xlink:href="#DejaVuSans-46"/>
       <use x="95.410156" xlink:href="#DejaVuSans-52"/>
      </g>
     </g>
    </g>
    <g id="xtick_4">
     <g id="line2d_4">
      <g>
       <use style="stroke:#000000;stroke-width:0.8;" x="198.090144" xlink:href="#mdcbd7d399e" y="307.584"/>
      </g>
     </g>
     <g id="text_4">
      <!-- 0.6 -->
      <defs>
       <path d="M 33.015625 40.375 
Q 26.375 40.375 22.484375 35.828125 
Q 18.609375 31.296875 18.609375 23.390625 
Q 18.609375 15.53125 22.484375 10.953125 
Q 26.375 6.390625 33.015625 6.390625 
Q 39.65625 6.390625 43.53125 10.953125 
Q 47.40625 15.53125 47.40625 23.390625 
Q 47.40625 31.296875 43.53125 35.828125 
Q 39.65625 40.375 33.015625 40.375 
z
M 52.59375 71.296875 
L 52.59375 62.3125 
Q 48.875 64.0625 45.09375 64.984375 
Q 41.3125 65.921875 37.59375 65.921875 
Q 27.828125 65.921875 22.671875 59.328125 
Q 17.53125 52.734375 16.796875 39.40625 
Q 19.671875 43.65625 24.015625 45.921875 
Q 28.375 48.1875 33.59375 48.1875 
Q 44.578125 48.1875 50.953125 41.515625 
Q 57.328125 34.859375 57.328125 23.390625 
Q 57.328125 12.15625 50.6875 5.359375 
Q 44.046875 -1.421875 33.015625 -1.421875 
Q 20.359375 -1.421875 13.671875 8.265625 
Q 6.984375 17.96875 6.984375 36.375 
Q 6.984375 53.65625 15.1875 63.9375 
Q 23.390625 74.21875 37.203125 74.21875 
Q 40.921875 74.21875 44.703125 73.484375 
Q 48.484375 72.75 52.59375 71.296875 
z
" id="DejaVuSans-54"/>
      </defs>
      <g transform="translate(190.138581 322.182437)scale(0.1 -0.1)">
       <use xlink:href="#DejaVuSans-48"/>
       <use x="63.623047" xlink:href="#DejaVuSans-46"/>
       <use x="95.410156" xlink:href="#DejaVuSans-54"/>
      </g>
     </g>
    </g>
    <g id="xtick_5">
     <g id="line2d_5">
      <g>
       <use style="stroke:#000000;stroke-width:0.8;" x="239.509283" xlink:href="#mdcbd7d399e" y="307.584"/>
      </g>
     </g>
     <g id="text_5">
      <!-- 0.8 -->
      <defs>
       <path d="M 31.78125 34.625 
Q 24.75 34.625 20.71875 30.859375 
Q 16.703125 27.09375 16.703125 20.515625 
Q 16.703125 13.921875 20.71875 10.15625 
Q 24.75 6.390625 31.78125 6.390625 
Q 38.8125 6.390625 42.859375 10.171875 
Q 46.921875 13.96875 46.921875 20.515625 
Q 46.921875 27.09375 42.890625 30.859375 
Q 38.875 34.625 31.78125 34.625 
z
M 21.921875 38.8125 
Q 15.578125 40.375 12.03125 44.71875 
Q 8.5 49.078125 8.5 55.328125 
Q 8.5 64.0625 14.71875 69.140625 
Q 20.953125 74.21875 31.78125 74.21875 
Q 42.671875 74.21875 48.875 69.140625 
Q 55.078125 64.0625 55.078125 55.328125 
Q 55.078125 49.078125 51.53125 44.71875 
Q 48 40.375 41.703125 38.8125 
Q 48.828125 37.15625 52.796875 32.3125 
Q 56.78125 27.484375 56.78125 20.515625 
Q 56.78125 9.90625 50.3125 4.234375 
Q 43.84375 -1.421875 31.78125 -1.421875 
Q 19.734375 -1.421875 13.25 4.234375 
Q 6.78125 9.90625 6.78125 20.515625 
Q 6.78125 27.484375 10.78125 32.3125 
Q 14.796875 37.15625 21.921875 38.8125 
z
M 18.3125 54.390625 
Q 18.3125 48.734375 21.84375 45.5625 
Q 25.390625 42.390625 31.78125 42.390625 
Q 38.140625 42.390625 41.71875 45.5625 
Q 45.3125 48.734375 45.3125 54.390625 
Q 45.3125 60.0625 41.71875 63.234375 
Q 38.140625 66.40625 31.78125 66.40625 
Q 25.390625 66.40625 21.84375 63.234375 
Q 18.3125 60.0625 18.3125 54.390625 
z
" id="DejaVuSans-56"/>
      </defs>
      <g transform="translate(231.55772 322.182437)scale(0.1 -0.1)">
       <use xlink:href="#DejaVuSans-48"/>
       <use x="63.623047" xlink:href="#DejaVuSans-46"/>
       <use x="95.410156" xlink:href="#DejaVuSans-56"/>
      </g>
     </g>
    </g>
    <g id="xtick_6">
     <g id="line2d_6">
      <g>
       <use style="stroke:#000000;stroke-width:0.8;" x="280.928421" xlink:href="#mdcbd7d399e" y="307.584"/>
      </g>
     </g>
     <g id="text_6">
      <!-- 1.0 -->
      <defs>
       <path d="M 12.40625 8.296875 
L 28.515625 8.296875 
L 28.515625 63.921875 
L 10.984375 60.40625 
L 10.984375 69.390625 
L 28.421875 72.90625 
L 38.28125 72.90625 
L 38.28125 8.296875 
L 54.390625 8.296875 
L 54.390625 0 
L 12.40625 0 
z
" id="DejaVuSans-49"/>
      </defs>
      <g transform="translate(272.976859 322.182437)scale(0.1 -0.1)">
       <use xlink:href="#DejaVuSans-49"/>
       <use x="63.623047" xlink:href="#DejaVuSans-46"/>
       <use x="95.410156" xlink:href="#DejaVuSans-48"/>
      </g>
     </g>
    </g>
    <g id="xtick_7">
     <g id="line2d_7">
      <g>
       <use style="stroke:#000000;stroke-width:0.8;" x="322.34756" xlink:href="#mdcbd7d399e" y="307.584"/>
      </g>
     </g>
     <g id="text_7">
      <!-- 1.2 -->
      <g transform="translate(314.395998 322.182437)scale(0.1 -0.1)">
       <use xlink:href="#DejaVuSans-49"/>
       <use x="63.623047" xlink:href="#DejaVuSans-46"/>
       <use x="95.410156" xlink:href="#DejaVuSans-50"/>
      </g>
     </g>
    </g>
    <g id="xtick_8">
     <g id="line2d_8">
      <g>
       <use style="stroke:#000000;stroke-width:0.8;" x="363.766699" xlink:href="#mdcbd7d399e" y="307.584"/>
      </g>
     </g>
     <g id="text_8">
      <!-- 1.4 -->
      <g transform="translate(355.815137 322.182437)scale(0.1 -0.1)">
       <use xlink:href="#DejaVuSans-49"/>
       <use x="63.623047" xlink:href="#DejaVuSans-46"/>
       <use x="95.410156" xlink:href="#DejaVuSans-52"/>
      </g>
     </g>
    </g>
    <g id="xtick_9">
     <g id="line2d_9">
      <g>
       <use style="stroke:#000000;stroke-width:0.8;" x="405.185838" xlink:href="#mdcbd7d399e" y="307.584"/>
      </g>
     </g>
     <g id="text_9">
      <!-- 1.6 -->
      <g transform="translate(397.234276 322.182437)scale(0.1 -0.1)">
       <use xlink:href="#DejaVuSans-49"/>
       <use x="63.623047" xlink:href="#DejaVuSans-46"/>
       <use x="95.410156" xlink:href="#DejaVuSans-54"/>
      </g>
     </g>
    </g>
   </g>
   <g id="matplotlib.axis_2">
    <g id="ytick_1">
     <g id="line2d_10">
      <defs>
       <path d="M 0 0 
L -3.5 0 
" id="m73c83f4d22" style="stroke:#000000;stroke-width:0.8;"/>
      </defs>
      <g>
       <use style="stroke:#000000;stroke-width:0.8;" x="57.6" xlink:href="#m73c83f4d22" y="295.488"/>
      </g>
     </g>
     <g id="text_10">
      <!-- 0.0 -->
      <g transform="translate(34.696875 299.287219)scale(0.1 -0.1)">
       <use xlink:href="#DejaVuSans-48"/>
       <use x="63.623047" xlink:href="#DejaVuSans-46"/>
       <use x="95.410156" xlink:href="#DejaVuSans-48"/>
      </g>
     </g>
    </g>
    <g id="ytick_2">
     <g id="line2d_11">
      <g>
       <use style="stroke:#000000;stroke-width:0.8;" x="57.6" xlink:href="#m73c83f4d22" y="247.103761"/>
      </g>
     </g>
     <g id="text_11">
      <!-- 0.2 -->
      <g transform="translate(34.696875 250.90298)scale(0.1 -0.1)">
       <use xlink:href="#DejaVuSans-48"/>
       <use x="63.623047" xlink:href="#DejaVuSans-46"/>
       <use x="95.410156" xlink:href="#DejaVuSans-50"/>
      </g>
     </g>
    </g>
    <g id="ytick_3">
     <g id="line2d_12">
      <g>
       <use style="stroke:#000000;stroke-width:0.8;" x="57.6" xlink:href="#m73c83f4d22" y="198.719522"/>
      </g>
     </g>
     <g id="text_12">
      <!-- 0.4 -->
      <g transform="translate(34.696875 202.518741)scale(0.1 -0.1)">
       <use xlink:href="#DejaVuSans-48"/>
       <use x="63.623047" xlink:href="#DejaVuSans-46"/>
       <use x="95.410156" xlink:href="#DejaVuSans-52"/>
      </g>
     </g>
    </g>
    <g id="ytick_4">
     <g id="line2d_13">
      <g>
       <use style="stroke:#000000;stroke-width:0.8;" x="57.6" xlink:href="#m73c83f4d22" y="150.335284"/>
      </g>
     </g>
     <g id="text_13">
      <!-- 0.6 -->
      <g transform="translate(34.696875 154.134502)scale(0.1 -0.1)">
       <use xlink:href="#DejaVuSans-48"/>
       <use x="63.623047" xlink:href="#DejaVuSans-46"/>
       <use x="95.410156" xlink:href="#DejaVuSans-54"/>
      </g>
     </g>
    </g>
    <g id="ytick_5">
     <g id="line2d_14">
      <g>
       <use style="stroke:#000000;stroke-width:0.8;" x="57.6" xlink:href="#m73c83f4d22" y="101.951045"/>
      </g>
     </g>
     <g id="text_14">
      <!-- 0.8 -->
      <g transform="translate(34.696875 105.750264)scale(0.1 -0.1)">
       <use xlink:href="#DejaVuSans-48"/>
       <use x="63.623047" xlink:href="#DejaVuSans-46"/>
       <use x="95.410156" xlink:href="#DejaVuSans-56"/>
      </g>
     </g>
    </g>
    <g id="ytick_6">
     <g id="line2d_15">
      <g>
       <use style="stroke:#000000;stroke-width:0.8;" x="57.6" xlink:href="#m73c83f4d22" y="53.566806"/>
      </g>
     </g>
     <g id="text_15">
      <!-- 1.0 -->
      <g transform="translate(34.696875 57.366025)scale(0.1 -0.1)">
       <use xlink:href="#DejaVuSans-49"/>
       <use x="63.623047" xlink:href="#DejaVuSans-46"/>
       <use x="95.410156" xlink:href="#DejaVuSans-48"/>
      </g>
     </g>
    </g>
   </g>
   <g id="line2d_16">
    <path clip-path="url(#pef427ffe25)" d="M 73.832727 280.309548 
L 77.736389 275.857054 
L 80.33883 273.222515 
L 82.290661 271.511122 
L 84.242492 270.040675 
L 86.194323 268.796265 
L 88.796764 267.431031 
L 92.049816 266.049031 
L 99.206529 263.209365 
L 101.808971 261.877842 
L 103.760802 260.665607 
L 105.712633 259.230666 
L 107.664463 257.554297 
L 110.266905 254.956704 
L 113.519956 251.277074 
L 118.724839 245.298573 
L 121.32728 242.700893 
L 123.279111 241.024422 
L 125.230942 239.589336 
L 127.182773 238.376901 
L 129.785214 237.044992 
L 133.038266 235.686078 
L 139.544369 233.118578 
L 142.14681 231.821193 
L 144.098641 230.642797 
L 146.050472 229.246646 
L 148.002303 227.610775 
L 149.954134 225.735841 
L 152.556575 222.919807 
L 161.014509 213.38906 
L 162.96634 211.592044 
L 164.918171 210.037282 
L 166.870002 208.717047 
L 169.472443 207.271649 
L 172.074884 206.095067 
L 177.279767 204.08917 
L 180.532818 202.730251 
L 183.13526 201.398337 
L 185.087091 200.185897 
L 187.038921 198.750803 
L 188.990752 197.074322 
L 191.593194 194.476622 
L 194.846245 190.796906 
L 200.051128 184.818333 
L 202.653569 182.220634 
L 204.6054 180.544152 
L 206.557231 179.109059 
L 208.509062 177.896619 
L 211.111503 176.564704 
L 214.364555 175.205786 
L 220.870658 172.638282 
L 223.473099 171.340896 
L 225.42493 170.162499 
L 227.376761 168.766348 
L 229.328592 167.130477 
L 231.280423 165.255543 
L 233.882864 162.439508 
L 242.340798 152.908762 
L 244.292629 151.111746 
L 246.24446 149.556984 
L 248.196291 148.236749 
L 250.798732 146.791351 
L 253.401173 145.614769 
L 258.606056 143.608871 
L 261.859107 142.249953 
L 264.461549 140.918038 
L 266.413379 139.705598 
L 268.36521 138.270505 
L 270.317041 136.594023 
L 272.919483 133.996324 
L 276.172534 130.316608 
L 281.377417 124.338035 
L 283.979858 121.740336 
L 285.931689 120.063855 
L 287.88352 118.628761 
L 289.835351 117.416322 
L 292.437792 116.084408 
L 295.690844 114.725491 
L 302.196947 112.157994 
L 304.799388 110.860613 
L 306.751219 109.682222 
L 308.70305 108.286077 
L 310.654881 106.650216 
L 312.606712 104.775295 
L 315.209153 101.959286 
L 323.667087 92.428741 
L 325.618918 90.631822 
L 327.570749 89.077191 
L 329.52258 87.757133 
L 332.125021 86.312071 
L 334.727462 85.13599 
L 339.932345 83.131956 
L 343.185396 81.775231 
L 345.787837 80.446059 
L 347.739668 79.236529 
L 349.691499 77.805361 
L 351.64333 76.134179 
L 354.245772 73.546529 
L 357.498823 69.886569 
L 362.703706 63.969365 
L 365.306147 61.426266 
L 367.257978 59.807512 
L 369.209809 58.449994 
L 371.16164 57.341638 
L 373.113471 56.456352 
L 375.715912 55.566455 
L 378.318353 54.936959 
L 381.571405 54.412869 
L 385.475066 54.037048 
L 390.679949 53.779917 
L 398.487273 53.63131 
L 398.487273 53.63131 
" style="fill:none;stroke:#1f77b4;stroke-linecap:square;stroke-width:1.5;"/>
   </g>
   <g id="line2d_17">
    <path clip-path="url(#pef427ffe25)" d="M 73.832727 295.488 
L 107.013853 256.892715 
L 124.580332 236.798104 
L 139.544369 220.00779 
L 152.556575 205.724663 
L 164.918171 192.482965 
L 175.978546 180.944749 
L 187.038921 169.733168 
L 197.448686 159.508118 
L 207.207841 150.233622 
L 216.316385 141.867991 
L 225.42493 133.799481 
L 233.882864 126.586988 
L 242.340798 119.656177 
L 250.798732 113.018606 
L 258.606056 107.161471 
L 266.413379 101.571958 
L 274.220703 96.258011 
L 282.028027 91.22718 
L 289.18474 86.870409 
L 296.341454 82.762748 
L 303.498167 78.909104 
L 310.654881 75.314077 
L 317.811594 71.981961 
L 324.317697 69.184263 
L 330.8238 66.609901 
L 337.329903 64.261413 
L 343.836007 62.141118 
L 350.34211 60.251108 
L 356.848213 58.593249 
L 363.354316 57.169176 
L 369.860419 55.980295 
L 376.366522 55.027779 
L 382.872625 54.312568 
L 389.378728 53.835369 
L 395.884831 53.596651 
L 398.487273 53.568 
L 398.487273 53.568 
" style="fill:none;stroke:#ff7f0e;stroke-linecap:square;stroke-width:1.5;"/>
   </g>
   <g id="line2d_18">
    <path clip-path="url(#pef427ffe25)" d="M 73.832727 290.028604 
L 75.784558 288.545237 
L 77.736389 286.794371 
L 80.33883 284.080118 
L 83.591882 280.264532 
L 88.796764 274.102179 
L 91.399206 271.358043 
L 94.001647 268.915036 
L 97.254698 266.179069 
L 102.459581 261.890787 
L 105.062022 259.470992 
L 107.664463 256.738682 
L 110.917515 252.905155 
L 118.074228 244.141496 
L 120.67667 241.364579 
L 123.279111 238.916444 
L 126.532163 236.212621 
L 132.387655 231.508497 
L 134.990097 229.119598 
L 137.592538 226.412168 
L 140.845589 222.610885 
L 148.002303 213.979906 
L 150.604744 211.289449 
L 153.207185 208.958001 
L 155.809627 206.928981 
L 164.918171 200.251367 
L 167.520612 197.876993 
L 170.123053 195.151547 
L 173.376105 191.346375 
L 178.580987 185.127146 
L 181.183429 182.365827 
L 183.78587 179.986274 
L 186.388311 177.983092 
L 188.990752 176.275012 
L 198.099297 170.658229 
L 200.701738 168.582772 
L 203.304179 166.128723 
L 205.906621 163.315587 
L 210.460893 157.929932 
L 213.713944 154.236586 
L 216.316385 151.648371 
L 218.268216 149.979277 
L 220.220047 148.543822 
L 222.822489 146.947704 
L 225.42493 145.621846 
L 234.533474 141.295898 
L 237.135915 139.627108 
L 239.087746 138.12766 
L 241.039577 136.39418 
L 243.642019 133.736565 
L 246.89507 130.019761 
L 251.449342 124.782467 
L 254.051784 122.152883 
L 256.003615 120.455411 
L 257.955445 119.009653 
L 259.907276 117.803338 
L 261.859107 116.807558 
L 264.461549 115.740856 
L 267.7146 114.686907 
L 275.521924 112.329865 
L 278.124365 111.257396 
L 280.076196 110.256218 
L 282.028027 109.044136 
L 283.979858 107.593139 
L 285.931689 105.892328 
L 288.53413 103.264481 
L 291.787182 99.580266 
L 296.341454 94.407725 
L 298.943895 91.830072 
L 300.895726 90.1787 
L 302.847557 88.785665 
L 304.799388 87.640286 
L 306.751219 86.716635 
L 309.35366 85.771638 
L 311.956101 85.077611 
L 315.209153 84.446629 
L 321.064646 83.601221 
L 325.618918 82.867363 
L 328.871969 82.113463 
L 331.474411 81.267223 
L 333.426242 80.437422 
L 335.378073 79.401482 
L 337.329903 78.129163 
L 339.281734 76.601759 
L 341.233565 74.82025 
L 343.836007 72.102342 
L 352.944551 62.052819 
L 354.896382 60.34617 
L 356.848213 58.898711 
L 358.800044 57.705822 
L 360.751875 56.745778 
L 362.703706 55.987776 
L 365.306147 55.233601 
L 367.908588 54.704761 
L 371.16164 54.267379 
L 375.715912 53.918803 
L 382.222015 53.697258 
L 393.28239 53.590722 
L 398.487273 53.577557 
L 398.487273 53.577557 
" style="fill:none;stroke:#2ca02c;stroke-linecap:square;stroke-width:1.5;"/>
   </g>
   <g id="line2d_19">
    <path clip-path="url(#pef427ffe25)" d="M 73.832727 295.488 
L 107.013853 256.892715 
L 124.580332 236.798104 
L 139.544369 220.00779 
L 152.556575 205.724663 
L 164.918171 192.482965 
L 175.978546 180.944749 
L 187.038921 169.733168 
L 197.448686 159.508118 
L 207.207841 150.233622 
L 216.316385 141.867991 
L 225.42493 133.799481 
L 233.882864 126.586988 
L 242.340798 119.656177 
L 250.798732 113.018606 
L 258.606056 107.161471 
L 266.413379 101.571958 
L 274.220703 96.258011 
L 282.028027 91.22718 
L 289.18474 86.870409 
L 296.341454 82.762748 
L 303.498167 78.909104 
L 310.654881 75.314077 
L 317.811594 71.981961 
L 324.317697 69.184263 
L 330.8238 66.609901 
L 337.329903 64.261413 
L 343.836007 62.141118 
L 350.34211 60.251108 
L 356.848213 58.593249 
L 363.354316 57.169176 
L 369.860419 55.980295 
L 376.366522 55.027779 
L 382.872625 54.312568 
L 389.378728 53.835369 
L 395.884831 53.596651 
L 398.487273 53.568 
L 398.487273 53.568 
" style="fill:none;stroke:#d62728;stroke-linecap:square;stroke-width:1.5;"/>
   </g>
   <g id="line2d_20">
    <path clip-path="url(#pef427ffe25)" d="M 73.832727 291.869588 
L 75.784558 290.791869 
L 77.736389 289.461734 
L 79.68822 287.860205 
L 81.640051 285.987717 
L 84.242492 283.119543 
L 88.146154 278.328334 
L 92.700426 272.76768 
L 95.953478 269.166876 
L 100.50775 264.541118 
L 104.411412 260.494228 
L 107.664463 256.756244 
L 110.917515 252.649418 
L 117.423618 244.289867 
L 120.026059 241.30712 
L 122.628501 238.613894 
L 126.532163 234.935684 
L 131.086435 230.603061 
L 133.688876 227.84015 
L 136.941927 223.998099 
L 146.050472 212.745251 
L 148.652913 210.035911 
L 151.255354 207.627743 
L 155.809627 203.8071 
L 159.062678 200.998774 
L 161.665119 198.492506 
L 164.267561 195.678559 
L 167.520612 191.783252 
L 173.376105 184.621614 
L 175.978546 181.808667 
L 178.580987 179.352848 
L 181.183429 177.220875 
L 185.087091 174.384084 
L 188.990752 171.523255 
L 191.593194 169.354924 
L 194.195635 166.86076 
L 196.798076 164.027568 
L 200.701738 159.359038 
L 204.6054 154.755321 
L 207.207841 152.035273 
L 209.810282 149.709752 
L 212.412724 147.771665 
L 215.015165 146.1411 
L 219.569437 143.647617 
L 222.822489 141.789337 
L 225.42493 140.049313 
L 227.376761 138.523787 
L 229.328592 136.779529 
L 231.931033 134.118441 
L 235.184085 130.392019 
L 239.738357 125.098361 
L 242.340798 122.414928 
L 244.292629 120.672075 
L 246.24446 119.180144 
L 248.196291 117.928935 
L 250.148122 116.890353 
L 252.750563 115.769128 
L 256.003615 114.646275 
L 263.160328 112.315388 
L 265.762769 111.192771 
L 267.7146 110.1534 
L 269.666431 108.902303 
L 271.618262 107.41239 
L 273.570093 105.674916 
L 276.172534 103.007298 
L 280.076196 98.539575 
L 283.979858 94.154812 
L 286.582299 91.617851 
L 288.53413 90.002523 
L 290.485961 88.646763 
L 292.437792 87.537898 
L 294.389623 86.649213 
L 296.992064 85.749041 
L 299.594505 85.100606 
L 302.847557 84.535401 
L 307.401829 84.004765 
L 316.510373 83.017614 
L 319.763425 82.423428 
L 322.365866 81.740018 
L 324.968308 80.792566 
L 326.920138 79.86011 
L 328.871969 78.701382 
L 330.8238 77.292212 
L 332.775631 75.62433 
L 335.378073 73.029374 
L 338.631124 69.371755 
L 343.185396 64.21616 
L 345.787837 61.642588 
L 347.739668 59.994248 
L 349.691499 58.605893 
L 351.64333 57.468313 
L 353.595161 56.557081 
L 356.197602 55.638778 
L 358.800044 54.987781 
L 362.053095 54.444903 
L 365.956757 54.055112 
L 371.16164 53.788184 
L 378.968963 53.633827 
L 396.535442 53.57132 
L 398.487273 53.57015 
L 398.487273 53.57015 
" style="fill:none;stroke:#9467bd;stroke-linecap:square;stroke-width:1.5;"/>
   </g>
   <g id="line2d_21">
    <path clip-path="url(#pef427ffe25)" d="M 73.832727 295.488 
L 107.013853 256.892715 
L 124.580332 236.798104 
L 139.544369 220.00779 
L 152.556575 205.724663 
L 164.918171 192.482965 
L 175.978546 180.944749 
L 187.038921 169.733168 
L 197.448686 159.508118 
L 207.207841 150.233622 
L 216.316385 141.867991 
L 225.42493 133.799481 
L 233.882864 126.586988 
L 242.340798 119.656177 
L 250.798732 113.018606 
L 258.606056 107.161471 
L 266.413379 101.571958 
L 274.220703 96.258011 
L 282.028027 91.22718 
L 289.18474 86.870409 
L 296.341454 82.762748 
L 303.498167 78.909104 
L 310.654881 75.314077 
L 317.811594 71.981961 
L 324.317697 69.184263 
L 330.8238 66.609901 
L 337.329903 64.261413 
L 343.836007 62.141118 
L 350.34211 60.251108 
L 356.848213 58.593249 
L 363.354316 57.169176 
L 369.860419 55.980295 
L 376.366522 55.027779 
L 382.872625 54.312568 
L 389.378728 53.835369 
L 395.884831 53.596651 
L 398.487273 53.568 
L 398.487273 53.568 
" style="fill:none;stroke:#8c564b;stroke-linecap:square;stroke-width:1.5;"/>
   </g>
   <g id="patch_3">
    <path d="M 57.6 307.584 
L 57.6 41.472 
" style="fill:none;stroke:#000000;stroke-linecap:square;stroke-linejoin:miter;stroke-width:0.8;"/>
   </g>
   <g id="patch_4">
    <path d="M 414.72 307.584 
L 414.72 41.472 
" style="fill:none;stroke:#000000;stroke-linecap:square;stroke-linejoin:miter;stroke-width:0.8;"/>
   </g>
   <g id="patch_5">
    <path d="M 57.6 307.584 
L 414.72 307.584 
" style="fill:none;stroke:#000000;stroke-linecap:square;stroke-linejoin:miter;stroke-width:0.8;"/>
   </g>
   <g id="patch_6">
    <path d="M 57.6 41.472 
L 414.72 41.472 
" style="fill:none;stroke:#000000;stroke-linecap:square;stroke-linejoin:miter;stroke-width:0.8;"/>
   </g>
  </g>
 </g>
 <defs>
  <clipPath id="pef427ffe25">
   <rect height="266.112" width="357.12" x="57.6" y="41.472"/>
  </clipPath>
 </defs>
</svg>
