<?xml version="1.0" encoding="utf-8" standalone="no"?>
<!DOCTYPE svg PUBLIC "-//W3C//DTD SVG 1.1//EN"
  "http://www.w3.org/Graphics/SVG/1.1/DTD/svg11.dtd">
<!-- Created with matplotlib (https://matplotlib.org/) -->
<svg height="345.6pt" version="1.1" viewBox="0 0 460.8 345.6" width="460.8pt" xmlns="http://www.w3.org/2000/svg" xmlns:xlink="http://www.w3.org/1999/xlink">
 <defs>
  <style type="text/css">
*{stroke-linecap:butt;stroke-linejoin:round;}
  </style>
 </defs>
 <g id="figure_1">
  <g id="patch_1">
   <path d="M 0 345.6 
L 460.8 345.6 
L 460.8 0 
L 0 0 
z
" style="fill:#ffffff;"/>
  </g>
  <g id="axes_1">
   <g id="patch_2">
    <path d="M 57.6 307.584 
L 414.72 307.584 
L 414.72 41.472 
L 57.6 41.472 
z
" style="fill:#ffffff;"/>
   </g>
   <g id="matplotlib.axis_1">
    <g id="xtick_1">
     <g id="line2d_1">
      <defs>
       <path d="M 0 0 
L 0 3.5 
" id="m1e3d73024a" style="stroke:#000000;stroke-width:0.8;"/>
      </defs>
      <g>
       <use style="stroke:#000000;stroke-width:0.8;" x="73.832727" xlink:href="#m1e3d73024a" y="307.584"/>
      </g>
     </g>
     <g id="text_1">
      <!-- 0.0 -->
      <defs>
       <path d="M 31.78125 66.40625 
Q 24.171875 66.40625 20.328125 58.90625 
Q 16.5 51.421875 16.5 36.375 
Q 16.5 21.390625 20.328125 13.890625 
Q 24.171875 6.390625 31.78125 6.390625 
Q 39.453125 6.390625 43.28125 13.890625 
Q 47.125 21.390625 47.125 36.375 
Q 47.125 51.421875 43.28125 58.90625 
Q 39.453125 66.40625 31.78125 66.40625 
z
M 31.78125 74.21875 
Q 44.046875 74.21875 50.515625 64.515625 
Q 56.984375 54.828125 56.984375 36.375 
Q 56.984375 17.96875 50.515625 8.265625 
Q 44.046875 -1.421875 31.78125 -1.421875 
Q 19.53125 -1.421875 13.0625 8.265625 
Q 6.59375 17.96875 6.59375 36.375 
Q 6.59375 54.828125 13.0625 64.515625 
Q 19.53125 74.21875 31.78125 74.21875 
z
" id="DejaVuSans-48"/>
       <path d="M 10.6875 12.40625 
L 21 12.40625 
L 21 0 
L 10.6875 0 
z
" id="DejaVuSans-46"/>
      </defs>
      <g transform="translate(65.881165 322.182437)scale(0.1 -0.1)">
       <use xlink:href="#DejaVuSans-48"/>
       <use x="63.623047" xlink:href="#DejaVuSans-46"/>
       <use x="95.410156" xlink:href="#DejaVuSans-48"/>
      </g>
     </g>
    </g>
    <g id="xtick_2">
     <g id="line2d_2">
      <g>
       <use style="stroke:#000000;stroke-width:0.8;" x="115.251866" xlink:href="#m1e3d73024a" y="307.584"/>
      </g>
     </g>
     <g id="text_2">
      <!-- 0.2 -->
      <defs>
       <path d="M 19.1875 8.296875 
L 53.609375 8.296875 
L 53.609375 0 
L 7.328125 0 
L 7.328125 8.296875 
Q 12.9375 14.109375 22.625 23.890625 
Q 32.328125 33.6875 34.8125 36.53125 
Q 39.546875 41.84375 41.421875 45.53125 
Q 43.3125 49.21875 43.3125 52.78125 
Q 43.3125 58.59375 39.234375 62.25 
Q 35.15625 65.921875 28.609375 65.921875 
Q 23.96875 65.921875 18.8125 64.3125 
Q 13.671875 62.703125 7.8125 59.421875 
L 7.8125 69.390625 
Q 13.765625 71.78125 18.9375 73 
Q 24.125 74.21875 28.421875 74.21875 
Q 39.75 74.21875 46.484375 68.546875 
Q 53.21875 62.890625 53.21875 53.421875 
Q 53.21875 48.921875 51.53125 44.890625 
Q 49.859375 40.875 45.40625 35.40625 
Q 44.1875 33.984375 37.640625 27.21875 
Q 31.109375 20.453125 19.1875 8.296875 
z
" id="DejaVuSans-50"/>
      </defs>
      <g transform="translate(107.300304 322.182437)scale(0.1 -0.1)">
       <use xlink:href="#DejaVuSans-48"/>
       <use x="63.623047" xlink:href="#DejaVuSans-46"/>
       <use x="95.410156" xlink:href="#DejaVuSans-50"/>
      </g>
     </g>
    </g>
    <g id="xtick_3">
     <g id="line2d_3">
      <g>
       <use style="stroke:#000000;stroke-width:0.8;" x="156.671005" xlink:href="#m1e3d73024a" y="307.584"/>
      </g>
     </g>
     <g id="text_3">
      <!-- 0.4 -->
      <defs>
       <path d="M 37.796875 64.3125 
L 12.890625 25.390625 
L 37.796875 25.390625 
z
M 35.203125 72.90625 
L 47.609375 72.90625 
L 47.609375 25.390625 
L 58.015625 25.390625 
L 58.015625 17.1875 
L 47.609375 17.1875 
L 47.609375 0 
L 37.796875 0 
L 37.796875 17.1875 
L 4.890625 17.1875 
L 4.890625 26.703125 
z
" id="DejaVuSans-52"/>
      </defs>
      <g transform="translate(148.719442 322.182437)scale(0.1 -0.1)">
       <use xlink:href="#DejaVuSans-48"/>
       <use x="63.623047" xlink:href="#DejaVuSans-46"/>
       <use x="95.410156" xlink:href="#DejaVuSans-52"/>
      </g>
     </g>
    </g>
    <g id="xtick_4">
     <g id="line2d_4">
      <g>
       <use style="stroke:#000000;stroke-width:0.8;" x="198.090144" xlink:href="#m1e3d73024a" y="307.584"/>
      </g>
     </g>
     <g id="text_4">
      <!-- 0.6 -->
      <defs>
       <path d="M 33.015625 40.375 
Q 26.375 40.375 22.484375 35.828125 
Q 18.609375 31.296875 18.609375 23.390625 
Q 18.609375 15.53125 22.484375 10.953125 
Q 26.375 6.390625 33.015625 6.390625 
Q 39.65625 6.390625 43.53125 10.953125 
Q 47.40625 15.53125 47.40625 23.390625 
Q 47.40625 31.296875 43.53125 35.828125 
Q 39.65625 40.375 33.015625 40.375 
z
M 52.59375 71.296875 
L 52.59375 62.3125 
Q 48.875 64.0625 45.09375 64.984375 
Q 41.3125 65.921875 37.59375 65.921875 
Q 27.828125 65.921875 22.671875 59.328125 
Q 17.53125 52.734375 16.796875 39.40625 
Q 19.671875 43.65625 24.015625 45.921875 
Q 28.375 48.1875 33.59375 48.1875 
Q 44.578125 48.1875 50.953125 41.515625 
Q 57.328125 34.859375 57.328125 23.390625 
Q 57.328125 12.15625 50.6875 5.359375 
Q 44.046875 -1.421875 33.015625 -1.421875 
Q 20.359375 -1.421875 13.671875 8.265625 
Q 6.984375 17.96875 6.984375 36.375 
Q 6.984375 53.65625 15.1875 63.9375 
Q 23.390625 74.21875 37.203125 74.21875 
Q 40.921875 74.21875 44.703125 73.484375 
Q 48.484375 72.75 52.59375 71.296875 
z
" id="DejaVuSans-54"/>
      </defs>
      <g transform="translate(190.138581 322.182437)scale(0.1 -0.1)">
       <use xlink:href="#DejaVuSans-48"/>
       <use x="63.623047" xlink:href="#DejaVuSans-46"/>
       <use x="95.410156" xlink:href="#DejaVuSans-54"/>
      </g>
     </g>
    </g>
    <g id="xtick_5">
     <g id="line2d_5">
      <g>
       <use style="stroke:#000000;stroke-width:0.8;" x="239.509283" xlink:href="#m1e3d73024a" y="307.584"/>
      </g>
     </g>
     <g id="text_5">
      <!-- 0.8 -->
      <defs>
       <path d="M 31.78125 34.625 
Q 24.75 34.625 20.71875 30.859375 
Q 16.703125 27.09375 16.703125 20.515625 
Q 16.703125 13.921875 20.71875 10.15625 
Q 24.75 6.390625 31.78125 6.390625 
Q 38.8125 6.390625 42.859375 10.171875 
Q 46.921875 13.96875 46.921875 20.515625 
Q 46.921875 27.09375 42.890625 30.859375 
Q 38.875 34.625 31.78125 34.625 
z
M 21.921875 38.8125 
Q 15.578125 40.375 12.03125 44.71875 
Q 8.5 49.078125 8.5 55.328125 
Q 8.5 64.0625 14.71875 69.140625 
Q 20.953125 74.21875 31.78125 74.21875 
Q 42.671875 74.21875 48.875 69.140625 
Q 55.078125 64.0625 55.078125 55.328125 
Q 55.078125 49.078125 51.53125 44.71875 
Q 48 40.375 41.703125 38.8125 
Q 48.828125 37.15625 52.796875 32.3125 
Q 56.78125 27.484375 56.78125 20.515625 
Q 56.78125 9.90625 50.3125 4.234375 
Q 43.84375 -1.421875 31.78125 -1.421875 
Q 19.734375 -1.421875 13.25 4.234375 
Q 6.78125 9.90625 6.78125 20.515625 
Q 6.78125 27.484375 10.78125 32.3125 
Q 14.796875 37.15625 21.921875 38.8125 
z
M 18.3125 54.390625 
Q 18.3125 48.734375 21.84375 45.5625 
Q 25.390625 42.390625 31.78125 42.390625 
Q 38.140625 42.390625 41.71875 45.5625 
Q 45.3125 48.734375 45.3125 54.390625 
Q 45.3125 60.0625 41.71875 63.234375 
Q 38.140625 66.40625 31.78125 66.40625 
Q 25.390625 66.40625 21.84375 63.234375 
Q 18.3125 60.0625 18.3125 54.390625 
z
" id="DejaVuSans-56"/>
      </defs>
      <g transform="translate(231.55772 322.182437)scale(0.1 -0.1)">
       <use xlink:href="#DejaVuSans-48"/>
       <use x="63.623047" xlink:href="#DejaVuSans-46"/>
       <use x="95.410156" xlink:href="#DejaVuSans-56"/>
      </g>
     </g>
    </g>
    <g id="xtick_6">
     <g id="line2d_6">
      <g>
       <use style="stroke:#000000;stroke-width:0.8;" x="280.928421" xlink:href="#m1e3d73024a" y="307.584"/>
      </g>
     </g>
     <g id="text_6">
      <!-- 1.0 -->
      <defs>
       <path d="M 12.40625 8.296875 
L 28.515625 8.296875 
L 28.515625 63.921875 
L 10.984375 60.40625 
L 10.984375 69.390625 
L 28.421875 72.90625 
L 38.28125 72.90625 
L 38.28125 8.296875 
L 54.390625 8.296875 
L 54.390625 0 
L 12.40625 0 
z
" id="DejaVuSans-49"/>
      </defs>
      <g transform="translate(272.976859 322.182437)scale(0.1 -0.1)">
       <use xlink:href="#DejaVuSans-49"/>
       <use x="63.623047" xlink:href="#DejaVuSans-46"/>
       <use x="95.410156" xlink:href="#DejaVuSans-48"/>
      </g>
     </g>
    </g>
    <g id="xtick_7">
     <g id="line2d_7">
      <g>
       <use style="stroke:#000000;stroke-width:0.8;" x="322.34756" xlink:href="#m1e3d73024a" y="307.584"/>
      </g>
     </g>
     <g id="text_7">
      <!-- 1.2 -->
      <g transform="translate(314.395998 322.182437)scale(0.1 -0.1)">
       <use xlink:href="#DejaVuSans-49"/>
       <use x="63.623047" xlink:href="#DejaVuSans-46"/>
       <use x="95.410156" xlink:href="#DejaVuSans-50"/>
      </g>
     </g>
    </g>
    <g id="xtick_8">
     <g id="line2d_8">
      <g>
       <use style="stroke:#000000;stroke-width:0.8;" x="363.766699" xlink:href="#m1e3d73024a" y="307.584"/>
      </g>
     </g>
     <g id="text_8">
      <!-- 1.4 -->
      <g transform="translate(355.815137 322.182437)scale(0.1 -0.1)">
       <use xlink:href="#DejaVuSans-49"/>
       <use x="63.623047" xlink:href="#DejaVuSans-46"/>
       <use x="95.410156" xlink:href="#DejaVuSans-52"/>
      </g>
     </g>
    </g>
    <g id="xtick_9">
     <g id="line2d_9">
      <g>
       <use style="stroke:#000000;stroke-width:0.8;" x="405.185838" xlink:href="#m1e3d73024a" y="307.584"/>
      </g>
     </g>
     <g id="text_9">
      <!-- 1.6 -->
      <g transform="translate(397.234276 322.182437)scale(0.1 -0.1)">
       <use xlink:href="#DejaVuSans-49"/>
       <use x="63.623047" xlink:href="#DejaVuSans-46"/>
       <use x="95.410156" xlink:href="#DejaVuSans-54"/>
      </g>
     </g>
    </g>
   </g>
   <g id="matplotlib.axis_2">
    <g id="ytick_1">
     <g id="line2d_10">
      <defs>
       <path d="M 0 0 
L -3.5 0 
" id="m9f4ba08e5d" style="stroke:#000000;stroke-width:0.8;"/>
      </defs>
      <g>
       <use style="stroke:#000000;stroke-width:0.8;" x="57.6" xlink:href="#m9f4ba08e5d" y="295.488"/>
      </g>
     </g>
     <g id="text_10">
      <!-- 0.0 -->
      <g transform="translate(34.696875 299.287219)scale(0.1 -0.1)">
       <use xlink:href="#DejaVuSans-48"/>
       <use x="63.623047" xlink:href="#DejaVuSans-46"/>
       <use x="95.410156" xlink:href="#DejaVuSans-48"/>
      </g>
     </g>
    </g>
    <g id="ytick_2">
     <g id="line2d_11">
      <g>
       <use style="stroke:#000000;stroke-width:0.8;" x="57.6" xlink:href="#m9f4ba08e5d" y="247.103802"/>
      </g>
     </g>
     <g id="text_11">
      <!-- 0.2 -->
      <g transform="translate(34.696875 250.90302)scale(0.1 -0.1)">
       <use xlink:href="#DejaVuSans-48"/>
       <use x="63.623047" xlink:href="#DejaVuSans-46"/>
       <use x="95.410156" xlink:href="#DejaVuSans-50"/>
      </g>
     </g>
    </g>
    <g id="ytick_3">
     <g id="line2d_12">
      <g>
       <use style="stroke:#000000;stroke-width:0.8;" x="57.6" xlink:href="#m9f4ba08e5d" y="198.719603"/>
      </g>
     </g>
     <g id="text_12">
      <!-- 0.4 -->
      <g transform="translate(34.696875 202.518822)scale(0.1 -0.1)">
       <use xlink:href="#DejaVuSans-48"/>
       <use x="63.623047" xlink:href="#DejaVuSans-46"/>
       <use x="95.410156" xlink:href="#DejaVuSans-52"/>
      </g>
     </g>
    </g>
    <g id="ytick_4">
     <g id="line2d_13">
      <g>
       <use style="stroke:#000000;stroke-width:0.8;" x="57.6" xlink:href="#m9f4ba08e5d" y="150.335405"/>
      </g>
     </g>
     <g id="text_13">
      <!-- 0.6 -->
      <g transform="translate(34.696875 154.134623)scale(0.1 -0.1)">
       <use xlink:href="#DejaVuSans-48"/>
       <use x="63.623047" xlink:href="#DejaVuSans-46"/>
       <use x="95.410156" xlink:href="#DejaVuSans-54"/>
      </g>
     </g>
    </g>
    <g id="ytick_5">
     <g id="line2d_14">
      <g>
       <use style="stroke:#000000;stroke-width:0.8;" x="57.6" xlink:href="#m9f4ba08e5d" y="101.951206"/>
      </g>
     </g>
     <g id="text_14">
      <!-- 0.8 -->
      <g transform="translate(34.696875 105.750425)scale(0.1 -0.1)">
       <use xlink:href="#DejaVuSans-48"/>
       <use x="63.623047" xlink:href="#DejaVuSans-46"/>
       <use x="95.410156" xlink:href="#DejaVuSans-56"/>
      </g>
     </g>
    </g>
    <g id="ytick_6">
     <g id="line2d_15">
      <g>
       <use style="stroke:#000000;stroke-width:0.8;" x="57.6" xlink:href="#m9f4ba08e5d" y="53.567008"/>
      </g>
     </g>
     <g id="text_15">
      <!-- 1.0 -->
      <g transform="translate(34.696875 57.366226)scale(0.1 -0.1)">
       <use xlink:href="#DejaVuSans-49"/>
       <use x="63.623047" xlink:href="#DejaVuSans-46"/>
       <use x="95.410156" xlink:href="#DejaVuSans-48"/>
      </g>
     </g>
    </g>
   </g>
   <g id="line2d_16">
    <path clip-path="url(#paa8b658a49)" d="M 73.832727 280.30956 
L 77.736389 275.85707 
L 80.33883 273.222534 
L 82.290661 271.511142 
L 84.242492 270.040696 
L 86.194323 268.796287 
L 88.796764 267.431054 
L 92.049816 266.049055 
L 99.206529 263.209392 
L 101.808971 261.87787 
L 103.760802 260.665636 
L 105.712633 259.230696 
L 107.664463 257.554329 
L 110.266905 254.956738 
L 113.519956 251.27711 
L 118.724839 245.298615 
L 121.32728 242.700937 
L 123.279111 241.024467 
L 125.230942 239.589382 
L 127.182773 238.376949 
L 129.785214 237.045041 
L 133.038266 235.686127 
L 139.544369 233.11863 
L 142.14681 231.821246 
L 144.098641 230.642851 
L 146.050472 229.246701 
L 148.002303 227.610831 
L 149.954134 225.735899 
L 152.556575 222.919867 
L 161.014509 213.389129 
L 162.96634 211.592114 
L 164.918171 210.037353 
L 166.870002 208.717119 
L 169.472443 207.271723 
L 172.074884 206.095142 
L 177.279767 204.089246 
L 180.532818 202.730328 
L 183.13526 201.398415 
L 185.087091 200.185976 
L 187.038921 198.750884 
L 188.990752 197.074404 
L 191.593194 194.476706 
L 194.846245 190.796993 
L 200.051128 184.818426 
L 202.653569 182.220728 
L 204.6054 180.544248 
L 206.557231 179.109156 
L 208.509062 177.896717 
L 211.111503 176.564803 
L 214.364555 175.205886 
L 220.870658 172.638384 
L 223.473099 171.340999 
L 225.42493 170.162604 
L 227.376761 168.766454 
L 229.328592 167.130584 
L 231.280423 165.255651 
L 233.882864 162.439619 
L 242.340798 152.908881 
L 244.292629 151.111866 
L 246.24446 149.557105 
L 248.196291 148.236871 
L 250.798732 146.791475 
L 253.401173 145.614894 
L 258.606056 143.608998 
L 261.859107 142.25008 
L 264.461549 140.918167 
L 266.413379 139.705728 
L 268.36521 138.270636 
L 270.317041 136.594156 
L 272.919483 133.996458 
L 276.172534 130.316746 
L 281.377417 124.338178 
L 283.979858 121.740481 
L 285.931689 120.064001 
L 287.88352 118.628909 
L 289.835351 117.41647 
L 292.437792 116.084558 
L 295.690844 114.725642 
L 302.196947 112.158146 
L 304.799388 110.860766 
L 306.751219 109.682376 
L 308.70305 108.286233 
L 310.654881 106.650373 
L 312.606712 104.775454 
L 315.209153 101.959447 
L 323.667087 92.42891 
L 325.618918 90.631993 
L 327.570749 89.077363 
L 329.52258 87.757306 
L 332.125021 86.312245 
L 334.727462 85.136166 
L 339.932345 83.132133 
L 343.185396 81.775409 
L 345.787837 80.446238 
L 347.739668 79.236709 
L 349.691499 77.805543 
L 351.64333 76.134362 
L 354.245772 73.546714 
L 357.498823 69.886757 
L 362.703706 63.969558 
L 365.306147 61.426461 
L 367.257978 59.807709 
L 369.209809 58.450191 
L 371.16164 57.341836 
L 373.113471 56.456551 
L 375.715912 55.566655 
L 378.318353 54.937159 
L 381.571405 54.41307 
L 385.475066 54.037249 
L 390.679949 53.780118 
L 398.487273 53.631512 
L 398.487273 53.631512 
" style="fill:none;stroke:#1f77b4;stroke-linecap:square;stroke-width:1.5;"/>
   </g>
   <g id="line2d_17">
    <path clip-path="url(#paa8b658a49)" d="M 73.832727 295.488 
L 107.013853 256.892747 
L 124.580332 236.798153 
L 139.544369 220.007853 
L 152.556575 205.724737 
L 164.918171 192.483051 
L 175.978546 180.944844 
L 187.038921 169.733273 
L 197.448686 159.508231 
L 207.207841 150.233743 
L 216.316385 141.868119 
L 225.42493 133.799616 
L 233.882864 126.587129 
L 242.340798 119.656323 
L 250.798732 113.018757 
L 258.606056 107.161627 
L 266.413379 101.57212 
L 274.220703 96.258177 
L 282.028027 91.22735 
L 289.18474 86.870583 
L 296.341454 82.762926 
L 303.498167 78.909284 
L 310.654881 75.31426 
L 317.811594 71.982147 
L 324.317697 69.184452 
L 330.8238 66.610091 
L 337.329903 64.261605 
L 343.836007 62.141312 
L 350.34211 60.251304 
L 356.848213 58.593446 
L 363.354316 57.169374 
L 369.860419 55.980494 
L 376.366522 55.027979 
L 382.872625 54.312769 
L 389.378728 53.83557 
L 395.884831 53.596853 
L 398.487273 53.568201 
L 398.487273 53.568201 
" style="fill:none;stroke:#ff7f0e;stroke-linecap:square;stroke-width:1.5;"/>
   </g>
   <g id="line2d_18">
    <path clip-path="url(#paa8b658a49)" d="M 73.832727 291.925588 
L 75.784558 290.861549 
L 77.736389 289.546394 
L 79.68822 287.960111 
L 81.640051 286.101578 
L 84.242492 283.246697 
L 87.495544 279.274265 
L 92.700426 272.863047 
L 95.953478 269.22477 
L 100.50775 264.540043 
L 104.411412 260.443894 
L 107.664463 256.670628 
L 110.917515 252.539371 
L 117.423618 244.174194 
L 120.026059 241.199553 
L 122.628501 238.513932 
L 126.532163 234.838755 
L 131.086435 230.49281 
L 133.688876 227.717119 
L 136.941927 223.861007 
L 146.050472 212.628443 
L 148.652913 209.936628 
L 151.255354 207.544541 
L 155.809627 203.741578 
L 159.062678 200.936462 
L 161.665119 198.428553 
L 164.267561 195.611484 
L 167.520612 191.71407 
L 173.376105 184.563326 
L 175.978546 181.760715 
L 178.580987 179.316465 
L 181.183429 177.195906 
L 185.087091 174.374577 
L 188.990752 171.527239 
L 191.593194 169.367102 
L 194.195635 166.880437 
L 196.798076 164.053669 
L 200.701738 159.391792 
L 204.6054 154.79144 
L 207.207841 152.073445 
L 209.159672 150.293831 
L 211.111503 148.741085 
L 213.713944 146.98005 
L 216.966996 145.123898 
L 223.473099 141.544263 
L 226.07554 139.77833 
L 228.027371 138.223739 
L 229.979202 136.446806 
L 232.581643 133.745895 
L 235.834695 129.994207 
L 240.388967 124.735135 
L 242.991408 122.101369 
L 244.943239 120.401761 
L 246.89507 118.952961 
L 248.846901 117.741259 
L 251.449342 116.440742 
L 254.051784 115.412241 
L 257.955445 114.152722 
L 263.160328 112.461919 
L 265.762769 111.380259 
L 267.7146 110.381238 
L 269.666431 109.177373 
L 271.618262 107.738841 
L 273.570093 106.0525 
L 276.172534 103.442472 
L 279.425586 99.769499 
L 283.979858 94.581854 
L 286.582299 91.983383 
L 288.53413 90.31479 
L 290.485961 88.905849 
L 292.437792 87.747823 
L 294.389623 86.816235 
L 296.992064 85.869886 
L 299.594505 85.18733 
L 302.847557 84.593751 
L 307.401829 84.043628 
L 317.160984 82.974074 
L 320.414035 82.358116 
L 323.016477 81.648828 
L 325.618918 80.66667 
L 327.570749 79.702264 
L 329.52258 78.507295 
L 331.474411 77.059442 
L 333.426242 75.353527 
L 336.028683 72.716136 
L 339.281734 69.033072 
L 343.836007 63.908909 
L 346.438448 61.380023 
L 348.390279 59.770312 
L 350.34211 58.420507 
L 352.293941 57.318589 
L 354.245772 56.438557 
L 356.848213 55.554057 
L 359.450654 54.928453 
L 362.703706 54.407654 
L 366.607367 54.034223 
L 371.81225 53.778742 
L 380.270184 53.625007 
L 398.487273 53.570541 
L 398.487273 53.570541 
" style="fill:none;stroke:#2ca02c;stroke-linecap:square;stroke-width:1.5;"/>
   </g>
   <g id="line2d_19">
    <path clip-path="url(#paa8b658a49)" d="M 73.832727 295.488 
L 107.013853 256.892747 
L 124.580332 236.798153 
L 139.544369 220.007853 
L 152.556575 205.724737 
L 164.918171 192.483051 
L 175.978546 180.944844 
L 187.038921 169.733273 
L 197.448686 159.508231 
L 207.207841 150.233743 
L 216.316385 141.868119 
L 225.42493 133.799616 
L 233.882864 126.587129 
L 242.340798 119.656323 
L 250.798732 113.018757 
L 258.606056 107.161627 
L 266.413379 101.57212 
L 274.220703 96.258177 
L 282.028027 91.22735 
L 289.18474 86.870583 
L 296.341454 82.762926 
L 303.498167 78.909284 
L 310.654881 75.31426 
L 317.811594 71.982147 
L 324.317697 69.184452 
L 330.8238 66.610091 
L 337.329903 64.261605 
L 343.836007 62.141312 
L 350.34211 60.251304 
L 356.848213 58.593446 
L 363.354316 57.169374 
L 369.860419 55.980494 
L 376.366522 55.027979 
L 382.872625 54.312769 
L 389.378728 53.83557 
L 395.884831 53.596853 
L 398.487273 53.568201 
L 398.487273 53.568201 
" style="fill:none;stroke:#d62728;stroke-linecap:square;stroke-width:1.5;"/>
   </g>
   <g id="line2d_20">
    <path clip-path="url(#paa8b658a49)" d="M 73.832727 292.39821 
L 75.784558 291.453899 
L 77.736389 290.272764 
L 79.68822 288.827267 
L 81.640051 287.10415 
L 83.591882 285.112228 
L 86.194323 282.10451 
L 90.748595 276.342987 
L 94.652257 271.515273 
L 98.555919 267.070587 
L 105.062022 259.805144 
L 108.315074 255.791161 
L 113.519956 248.887904 
L 117.423618 243.909348 
L 120.026059 240.924561 
L 123.279111 237.585322 
L 132.387655 228.641355 
L 134.990097 225.644736 
L 138.893758 220.73134 
L 143.448031 214.965569 
L 146.050472 211.970844 
L 148.652913 209.28564 
L 151.905965 206.289961 
L 158.412068 200.49544 
L 161.014509 197.850825 
L 163.61695 194.907733 
L 167.520612 190.074843 
L 172.074884 184.466389 
L 174.677326 181.601869 
L 177.279767 179.074647 
L 179.882208 176.841143 
L 188.990752 169.403994 
L 191.593194 166.812724 
L 194.195635 163.903306 
L 198.749907 158.358741 
L 202.002959 154.513514 
L 204.6054 151.7706 
L 207.207841 149.410666 
L 209.810282 147.412718 
L 213.063334 145.277758 
L 219.569437 141.160896 
L 222.171878 139.170477 
L 224.77432 136.826569 
L 227.376761 134.11456 
L 230.629812 130.342614 
L 235.184085 125.007309 
L 237.786526 122.302679 
L 239.738357 120.540097 
L 241.690188 119.021512 
L 243.642019 117.733119 
L 246.24446 116.31607 
L 249.497511 114.878044 
L 256.654225 111.920979 
L 259.256666 110.5398 
L 261.208497 109.287212 
L 263.160328 107.81093 
L 265.112159 106.095362 
L 267.7146 103.456822 
L 270.967652 99.761709 
L 275.521924 94.562349 
L 278.124365 91.963938 
L 280.076196 90.297129 
L 282.028027 88.890702 
L 283.979858 87.735434 
L 285.931689 86.806545 
L 288.53413 85.863467 
L 291.136571 85.183769 
L 294.389623 84.593412 
L 298.943895 84.048111 
L 308.70305 83.000464 
L 311.956101 82.400356 
L 314.558543 81.709085 
L 317.160984 80.750662 
L 319.112815 79.807922 
L 321.064646 78.637413 
L 323.016477 77.215572 
L 324.968308 75.535143 
L 327.570749 72.926048 
L 330.8238 69.2597 
L 335.378073 64.114041 
L 337.980514 61.55513 
L 339.932345 59.91956 
L 341.884176 58.544004 
L 343.836007 57.418301 
L 345.787837 56.517485 
L 348.390279 55.610488 
L 350.99272 54.967998 
L 354.245772 54.432525 
L 358.149433 54.048227 
L 363.354316 53.785144 
L 371.81225 53.62677 
L 390.679949 53.570302 
L 398.487273 53.568 
L 398.487273 53.568 
" style="fill:none;stroke:#9467bd;stroke-linecap:square;stroke-width:1.5;"/>
   </g>
   <g id="line2d_21">
    <path clip-path="url(#paa8b658a49)" d="M 73.832727 295.488 
L 107.013853 256.892747 
L 124.580332 236.798153 
L 139.544369 220.007853 
L 152.556575 205.724737 
L 164.918171 192.483051 
L 175.978546 180.944844 
L 187.038921 169.733273 
L 197.448686 159.508231 
L 207.207841 150.233743 
L 216.316385 141.868119 
L 225.42493 133.799616 
L 233.882864 126.587129 
L 242.340798 119.656323 
L 250.798732 113.018757 
L 258.606056 107.161627 
L 266.413379 101.57212 
L 274.220703 96.258177 
L 282.028027 91.22735 
L 289.18474 86.870583 
L 296.341454 82.762926 
L 303.498167 78.909284 
L 310.654881 75.31426 
L 317.811594 71.982147 
L 324.317697 69.184452 
L 330.8238 66.610091 
L 337.329903 64.261605 
L 343.836007 62.141312 
L 350.34211 60.251304 
L 356.848213 58.593446 
L 363.354316 57.169374 
L 369.860419 55.980494 
L 376.366522 55.027979 
L 382.872625 54.312769 
L 389.378728 53.83557 
L 395.884831 53.596853 
L 398.487273 53.568201 
L 398.487273 53.568201 
" style="fill:none;stroke:#8c564b;stroke-linecap:square;stroke-width:1.5;"/>
   </g>
   <g id="patch_3">
    <path d="M 57.6 307.584 
L 57.6 41.472 
" style="fill:none;stroke:#000000;stroke-linecap:square;stroke-linejoin:miter;stroke-width:0.8;"/>
   </g>
   <g id="patch_4">
    <path d="M 414.72 307.584 
L 414.72 41.472 
" style="fill:none;stroke:#000000;stroke-linecap:square;stroke-linejoin:miter;stroke-width:0.8;"/>
   </g>
   <g id="patch_5">
    <path d="M 57.6 307.584 
L 414.72 307.584 
" style="fill:none;stroke:#000000;stroke-linecap:square;stroke-linejoin:miter;stroke-width:0.8;"/>
   </g>
   <g id="patch_6">
    <path d="M 57.6 41.472 
L 414.72 41.472 
" style="fill:none;stroke:#000000;stroke-linecap:square;stroke-linejoin:miter;stroke-width:0.8;"/>
   </g>
  </g>
 </g>
 <defs>
  <clipPath id="paa8b658a49">
   <rect height="266.112" width="357.12" x="57.6" y="41.472"/>
  </clipPath>
 </defs>
</svg>
